<?xml version="1.0" encoding="UTF-8"?>
<svg id="Layer_2" data-name="Layer 2" xmlns="http://www.w3.org/2000/svg" viewBox="0 0 244.27 80">
  <defs>
    <style>
      .cls-1 {
        fill: #666;
      }

      .cls-1, .cls-2 {
        fill-rule: evenodd;
      }

      .cls-1, .cls-2, .cls-3 {
        stroke-width: 0px;
      }

      .cls-2 {
        fill: #a00000;
      }

      .cls-3 {
        fill: #fff;
      }
    </style>
  </defs>
  <g id="Layer_1-2" data-name="Layer 1">
    <g id="Logo-export">
      <g id="Logo-finals_logo-full-windy-gray" data-name="Logo-finals/logo-full-windy-gray">
        <path id="Windy" class="cls-1" d="M123.93,57.97l-7.13-25.42-7.13,25.42c-.43,1.55-1.8,2.67-3.47,2.67s-2.98-1.05-3.41-2.48l-10.6-35.53c-.12-.37-.19-.68-.19-1.12,0-1.98,1.61-3.6,3.6-3.6s3.1,1.43,3.41,2.48l7.25,26.04,7.07-25.92c.43-1.61,1.92-2.6,3.47-2.6s3.04.99,3.47,2.6l7.07,25.92,7.25-26.04c.31-1.05,1.43-2.48,3.41-2.48s3.6,1.61,3.6,3.6c0,.43-.06.74-.19,1.12l-10.6,35.53c-.43,1.43-1.8,2.48-3.41,2.48s-3.04-1.12-3.47-2.67ZM152.57,34.85v22.44c0,1.86-1.49,3.35-3.35,3.35s-3.35-1.49-3.35-3.35v-22.44c0-1.86,1.49-3.35,3.35-3.35s3.35,1.49,3.35,3.35ZM149.23,28.15c-2.54,0-3.97-1.49-3.97-3.91,0-2.85,1.43-4.09,3.97-4.09s4.03,1.24,4.03,4.09c0,2.42-1.43,3.91-4.03,3.91ZM173.41,31.13c8.43,0,10.42,5.39,10.42,10.79v15.5c0,1.86-1.49,3.22-3.35,3.22-1.98,0-3.35-1.36-3.35-3.22v-14.26c0-3.53-1.43-5.95-5.46-5.95-4.65,0-6.2,2.73-6.2,6.39v13.83c0,1.86-1.43,3.22-3.35,3.22s-3.35-1.36-3.35-3.22v-22.57c0-1.86,1.49-3.35,3.35-3.35s3.35,1.49,3.35,3.35c1.18-1.8,3.78-3.72,7.94-3.72ZM207.82,48.55v-8.56s-2.42-3.16-6.14-3.16c-4.22,0-6.63,3.1-6.63,9.24s2.36,9.18,6.63,9.18c3.6,0,6.14-2.42,6.14-6.7ZM201,31.13c2.98,0,5.58,1.24,6.82,2.48v-14.26c0-1.86,1.49-3.35,3.35-3.35s3.35,1.49,3.35,3.35v29.2c0,8.25-5.33,12.4-12.83,12.4-8.37,0-13.27-4.77-13.27-14.88s4.77-14.94,12.59-14.94ZM219.66,66.41c3.97,0,5.83-3.16,7.87-8.25l-9.55-22.01c-.12-.31-.25-.74-.25-1.3,0-1.86,1.49-3.35,3.35-3.35s2.79,1.3,3.1,2.11l6.82,17.24,6.82-17.24c.31-.81,1.24-2.11,3.1-2.11s3.35,1.49,3.35,3.35c0,.56-.12.99-.25,1.3l-11.53,26.04c-2.73,6.08-6.63,10.42-12.83,10.42-1.8,0-3.22-1.3-3.22-3.1s1.43-3.1,3.22-3.1Z"/>
        <g id="Logo-finals_logo-symbol" data-name="Logo-finals/logo-symbol">
          <circle id="Background-white" class="cls-3" cx="40" cy="40" r="32"/>
          <path id="Logo" class="cls-2" d="M36.44,59.4h0c-.12,0-.23,0-.35,0h-.7c-.22-.02-.43-.06-.64-.12-.44-.13-.85-.32-1.23-.57-.89-.6-1.66-1.35-2.29-2.22-1.38-1.95-2.46-4.1-3.21-6.38-.39-1.11-.72-2.24-.99-3.39-.07-.27-.13-.56-.19-.83l-.09-.43-.08-.41-.15-.83c-.04-.28-.13-.57-.13-.85-.35-2.25-.59-4.52-.8-6.51-.42-4.11-.66-7.55-.83-9.97l-.18-2.79-.06-1-.02-.03v-.35c-.33-2.34-2.5-3.97-4.83-3.63-2.34.33-3.96,2.5-3.63,4.84l.14,1,.42,2.83c.37,2.44.91,5.91,1.68,10.1.43,2.09.84,4.36,1.42,6.81.08.31.15.61.23.93l.26,1c.05.16.09.31.14.49l.15.48c.1.36.21.67.32,1,.45,1.32.97,2.61,1.55,3.87.6,1.32,1.29,2.6,2.05,3.83.8,1.31,1.73,2.54,2.77,3.68,1.13,1.26,2.48,2.31,3.98,3.09.84.42,1.73.71,2.66.86.47.08.95.11,1.43.11h.66l.68-.08c.23-.03.46-.07.69-.13.22-.05.43-.11.64-.17.21-.06.42-.13.62-.2.2-.07.4-.14.59-.23.28-.12.56-.25.84-.39,1.02.58,2.16.95,3.33,1.06h2.02c.23-.04.46-.08.68-.13.44-.1.86-.24,1.27-.41.77-.32,1.5-.73,2.17-1.23,1.19-.9,2.26-1.96,3.17-3.14,1.62-2.14,3-4.44,4.13-6.87,1.11-2.29,2.02-4.58,2.82-6.72.8-2.14,1.48-4.22,2.07-6.13,1.18-3.83,2-7.05,2.56-9.3.27-1.13.48-2.01.62-2.62l.21-.93-.31.9c-.2.55-.5,1.46-.9,2.54-.8,2.18-1.96,5.28-3.52,8.92-.79,1.8-1.67,3.78-2.68,5.79-1.01,2.01-2.12,4.11-3.41,6.17-1.26,2.09-2.73,4.04-4.4,5.81-.79.83-1.68,1.54-2.66,2.13-.43.25-.88.44-1.35.58-.21.06-.42.1-.64.12h-.6c.07-.08.15-.15.23-.23,1.93-2.03,3.66-4.24,5.16-6.61,1.45-2.25,2.71-4.47,3.81-6.65,1.11-2.17,2.07-4.23,2.91-6.16,1.67-3.86,2.85-7.16,3.59-9.49.4-1.22.73-2.46,1-3.71-.39,1.21-.85,2.4-1.37,3.57-.97,2.19-2.5,5.34-4.49,8.97-1.01,1.81-2.12,3.75-3.45,5.74-1.32,1.99-2.72,4.04-4.31,6.03-1.59,2.03-3.37,3.9-5.33,5.58-.34.29-.69.56-1.05.82-.2-.31-.38-.64-.53-.99-.45-1.01-.81-2.07-1.07-3.15-.28-1.13-.51-2.28-.68-3.44-.17-1.16-.31-2.32-.43-3.47l-.16-1.71-.12-1.64c-.15-2.18-.16-4.25-.15-6.17,0-1.92.08-3.7.16-5.26.08-1.57.18-2.93.27-4.06.09-1.13.18-2,.24-2.59l.1-.89-.02-.1v-.38c.03-1.53-.75-2.96-2.06-3.75-1.31-.79-2.94-.83-4.28-.09-1.34.74-2.18,2.13-2.22,3.66v1c0,.66-.01,1.59,0,2.79.01,1.2.04,2.65.1,4.31.06,1.65.16,3.54.33,5.58.17,2.04.4,4.27.76,6.63l.3,1.79.17.89.18.91c.25,1.22.53,2.46.85,3.74.32,1.28.7,2.57,1.17,3.9.49,1.39,1.11,2.72,1.85,3.99.14.24.28.47.44.7M40,80C17.91,80,0,62.09,0,40S17.91,0,40,0s40,17.91,40,40-17.91,40-40,40"/>
        </g>
      </g>
    </g>
  </g>
</svg>